HIERARCHY
ROOT Hips
{
	OFFSET 0.000000 0.000000 0.000000
	CHANNELS 6 Xposition Yposition Zposition Zrotation Yrotation Xrotation 
	JOINT LHipJoint
	{
		OFFSET 0.000000 0.000000 0.000000
		CHANNELS 3 Zrotation Yrotation Xrotation
		JOINT LeftUpLeg
		{
			OFFSET 1.363060 -1.794630 0.839290
			CHANNELS 3 Zrotation Yrotation Xrotation
			JOINT LeftLeg
			{
				OFFSET 2.448110 -6.726130 0.000000
				CHANNELS 3 Zrotation Yrotation Xrotation
				JOINT LeftFoot
				{
					OFFSET 2.562200 -7.039590 0.000000
					CHANNELS 3 Zrotation Yrotation Xrotation
					JOINT LeftToeBase
					{
						OFFSET 0.157640 -0.433110 2.322550
						CHANNELS 3 Zrotation Yrotation Xrotation
						End Site
						{
							OFFSET 0.000000 0.000000 0.000000
						}
					}
				}
			}
		}
	}
	JOINT RHipJoint
	{
		OFFSET 0.000000 0.000000 0.000000
		CHANNELS 3 Zrotation Yrotation Xrotation
		JOINT RightUpLeg
		{
			OFFSET -1.305520 -1.794630 0.839290
			CHANNELS 3 Zrotation Yrotation Xrotation
			JOINT RightLeg
			{
				OFFSET -2.542530 -6.985550 0.000000
				CHANNELS 3 Zrotation Yrotation Xrotation
				JOINT RightFoot
				{
					OFFSET -2.568260 -7.056230 0.000000
					CHANNELS 3 Zrotation Yrotation Xrotation
					JOINT RightToeBase
					{
						OFFSET -0.164730 -0.452590 2.363150
						CHANNELS 3 Zrotation Yrotation Xrotation
						End Site
						{
							OFFSET 0.000000 0.000000 0.000000
						}
					}
				}
			}
		}
	}
}
MOTION
Frames: 27
Frame Time: 0.008333
-1.467718 17.282114 0.941876 16.537111 -88.035667 0.984331 -9.378216 -0.146733 0.157216 -12.403753 -7.835966 -19.501763 -2.231279 -0.717339 7.290233 0.942655 5.430294 -3.912727 0.506300 0.000001 -32.423000 10.039940 1.659131 -1.971891 2.222244 2.495714 -40.291653 -1.084933 -3.808774 56.289351 -1.620988 -6.734721 12.326928 -2.153900 0.000000 -74.569800
-1.471280 17.283504 0.946675 11.710177 -87.182920 5.369260 -9.462211 -0.266115 0.154120 -12.247566 -8.234454 -18.918922 -2.192930 -0.703435 7.480317 0.929988 5.388626 -3.970108 0.490100 -0.000000 -32.437700 10.003019 1.656662 -2.092715 2.205855 2.155650 -41.123021 -1.214878 -3.960429 58.368419 -1.691067 -6.755088 14.228675 -2.268400 0.000000 -74.446000
-1.474397 17.285311 0.951473 8.179055 -86.390349 8.456504 -9.517110 -0.362303 0.150246 -12.064613 -8.618057 -18.341633 -2.152973 -0.684673 7.661247 0.923524 5.374148 -4.033674 0.475600 -0.000000 -32.463499 9.985564 1.685198 -2.208094 2.223966 1.845102 -41.960072 -1.335466 -4.097120 60.385125 -1.768812 -6.803628 16.070183 -2.388700 -0.000000 -74.253800
-1.477076 17.287559 0.956339 5.354309 -85.639985 10.839807 -9.558736 -0.445103 0.147406 -11.858800 -8.991888 -17.779342 -2.110721 -0.662229 7.845631 0.921981 5.382465 -4.104207 0.462300 0.000000 -32.501600 9.973445 1.731121 -2.319401 2.272285 1.552137 -42.812092 -1.445024 -4.224569 62.338875 -1.850117 -6.879319 17.799153 -2.514800 0.000000 -74.055100
-1.478954 17.290272 0.961395 2.947198 -84.929327 12.804045 -9.593621 -0.520260 0.142526 -11.633163 -9.353989 -17.223811 -2.065867 -0.637072 8.029099 0.924828 5.414237 -4.177802 0.450400 0.000000 -32.554100 9.961343 1.787231 -2.429563 2.347331 1.275732 -43.677662 -1.544277 -4.347419 64.229173 -1.930191 -6.975195 19.366206 -2.642701 0.000000 -73.868600
-1.479980 17.293498 0.966666 0.796612 -84.255154 14.510442 -9.625112 -0.590615 0.134158 -11.388823 -9.701741 -16.672143 -2.018496 -0.609765 8.210984 0.931306 5.466724 -4.252167 0.439800 -0.000000 -32.623400 9.947388 1.848303 -2.539722 2.447127 1.015090 -44.556331 -1.635489 -4.469107 66.055024 -2.004585 -7.083150 20.724817 -2.767000 -0.000000 -73.737700
-1.479896 17.297213 0.972256 -1.209524 -83.614972 16.070677 -9.655213 -0.658223 0.120791 -11.125020 -10.031736 -16.126143 -1.968670 -0.580339 8.394088 0.940591 5.535305 -4.326760 0.430300 0.000000 -32.710300 9.930850 1.911209 -2.651032 2.571734 0.769866 -45.450501 -1.721840 -4.592162 67.816070 -2.069275 -7.192581 21.833369 -2.879600 0.000000 -73.657400
-1.478760 17.301435 0.978112 -3.115224 -83.005662 17.532054 -9.684813 -0.723382 0.103267 -10.843048 -10.344931 -15.589509 -1.916620 -0.548964 8.580462 0.952265 5.617669 -4.400636 0.421601 -0.000000 -32.813300 9.911828 1.974304 -2.762788 2.717939 0.539521 -46.364421 -1.806925 -4.717811 69.511565 -2.121370 -7.292758 22.662952 -2.972100 0.000000 -73.660699
-1.476178 17.306132 0.984304 -4.986486 -82.427909 18.954984 -9.715713 -0.787501 0.076633 -10.541569 -10.625857 -15.055925 -1.862977 -0.515439 8.766725 0.964367 5.701647 -4.471612 0.413200 0.000000 -32.937500 9.890226 2.036185 -2.876741 2.887198 0.327763 -47.292955 -1.893679 -4.846727 71.139824 -2.158474 -7.369807 23.196137 -3.034500 -0.000000 -73.686900
-1.472186 17.311249 0.990816 -6.850770 -81.878582 20.368774 -9.749086 -0.850802 0.039674 -10.219337 -10.867177 -14.528234 -1.808242 -0.479603 8.954886 0.975422 5.777125 -4.539421 0.404301 0.000000 -33.084400 9.865788 2.096578 -2.992543 3.079326 0.135392 -48.236934 -1.984054 -4.978325 72.696905 -2.179763 -7.414759 23.434852 -3.060699 -0.000000 -73.745600
-1.466870 17.316711 0.997385 -8.674648 -81.353263 21.744937 -9.784392 -0.912277 -0.003359 -9.881019 -11.078525 -14.013986 -1.752768 -0.441997 9.144328 0.985809 5.847177 -4.601675 0.395700 0.000000 -33.247400 9.838471 2.156847 -3.107111 3.285991 -0.040118 -49.205993 -2.079224 -5.111499 74.181409 -2.185139 -7.417665 23.396816 -3.045900 0.000000 -73.831000
-1.460232 17.322465 1.003963 -10.474234 -80.850029 23.099393 -9.822623 -0.972337 -0.054579 -9.526520 -11.249876 -13.512040 -1.697313 -0.402784 9.332264 0.993789 5.900466 -4.656925 0.386800 0.000000 -33.428900 9.807629 2.217405 -3.220106 3.506006 -0.198196 -50.199249 -2.178620 -5.244983 75.588766 -2.175279 -7.372544 23.114928 -2.989400 0.000000 -73.896201
-1.452415 17.328414 1.010407 -12.236313 -80.366214 24.422851 -9.863773 -1.030922 -0.113222 -9.158212 -11.381759 -13.024448 -1.642387 -0.362502 9.515131 0.998851 5.933985 -4.703469 0.377900 0.000000 -33.626800 9.772453 2.279645 -3.330096 3.734595 -0.340090 -51.220487 -2.280723 -5.377169 76.914423 -2.151787 -7.277246 22.638202 -2.894900 -0.000000 -73.932800
-1.443411 17.334470 1.016552 -13.948090 -79.899198 25.703264 -9.907635 -1.088213 -0.178562 -8.778947 -11.474743 -12.552410 -1.588552 -0.321751 9.688799 1.000496 5.944908 -4.739540 0.368900 -0.000000 -33.840000 9.732098 2.344940 -3.435704 3.966704 -0.468378 -52.273121 -2.383257 -5.506569 78.153907 -2.117015 -7.133966 22.025896 -2.769700 0.000000 -73.932100
-1.433515 17.340550 1.022112 -15.568605 -79.446654 26.904767 -9.952530 -1.143599 -0.246694 -8.396348 -11.540876 -12.097340 -1.536261 -0.281772 9.846838 0.999584 5.940240 -4.762258 0.361000 0.000000 -34.060900 9.686372 2.414713 -3.534179 4.191778 -0.588349 -53.365421 -2.484236 -5.632384 79.306712 -2.073210 -6.943646 21.336393 -2.620400 -0.000000 -73.830700
-1.422498 17.346606 1.027477 -17.172365 -79.003949 28.096144 -10.001714 -1.198937 -0.324978 -7.998537 -11.550980 -11.656382 -1.485891 -0.241671 9.992705 0.992306 5.892129 -4.775434 0.351800 -0.000000 -34.305800 9.632955 2.488223 -3.628249 4.423773 -0.698677 -54.484458 -2.579495 -5.752293 80.358589 -2.024892 -6.726183 20.646925 -2.464100 -0.000000 -73.795200
-1.410807 17.352525 1.032088 -18.662243 -78.571846 29.190180 -10.050246 -1.252856 -0.403563 -7.603518 -11.544791 -11.232295 -1.437439 -0.203718 10.115114 0.983148 5.833515 -4.774103 0.344200 -0.000000 -34.554400 9.572701 2.568170 -3.713429 4.639695 -0.808499 -55.649431 -2.668632 -5.866833 81.317417 -1.973850 -6.479105 20.003975 -2.303200 0.000000 -73.692700
-1.398444 17.358302 1.036107 -20.064961 -78.147889 30.212280 -10.098667 -1.306187 -0.484309 -7.208262 -11.516787 -10.822989 -1.390910 -0.167864 10.213941 0.971286 5.758017 -4.760132 0.337600 -0.000000 -34.810600 9.504549 2.654178 -3.790693 4.843456 -0.919853 -56.855797 -2.749397 -5.975137 82.177270 -1.923255 -6.215099 19.459580 -2.147300 -0.000000 -73.592100
-1.385426 17.363861 1.039502 -21.374567 -77.731907 31.157519 -10.145744 -1.359418 -0.566019 -6.816307 -11.477782 -10.426774 -1.346067 -0.134467 10.287316 0.958077 5.674889 -4.734495 0.332200 0.000000 -35.070400 9.427990 2.746810 -3.860217 5.030942 -1.036053 -58.104817 -2.820600 -6.077011 82.936605 -1.875396 -5.942033 19.049972 -2.001200 0.000000 -73.540000
-1.371870 17.369197 1.042356 -22.598310 -77.322712 32.034017 -10.191007 -1.412865 -0.648064 -6.427752 -11.434330 -10.041864 -1.302491 -0.103587 10.335080 0.944403 5.589971 -4.698534 0.328300 -0.000000 -35.331200 9.342639 2.845480 -3.922405 5.202239 -1.159190 -59.394427 -2.881265 -6.172440 83.593743 -1.831572 -5.664852 18.793927 -1.866800 0.000000 -73.544200
-1.357751 17.374341 1.044779 -23.743365 -76.920199 32.849236 -10.233970 -1.467021 -0.730137 -6.043527 -11.394118 -9.666932 -1.259774 -0.075043 10.359398 0.931327 5.510057 -4.654787 0.325900 -0.000000 -35.589399 9.248216 2.949601 -3.978049 5.356860 -1.290502 -60.721629 -2.930667 -6.261581 84.147500 -1.792306 -5.386047 18.695507 -1.743300 0.000001 -73.616400
-1.343001 17.379236 1.046886 -24.821154 -76.523819 33.613339 -10.274430 -1.522340 -0.811813 -5.663237 -11.365039 -9.300460 -1.217311 -0.048463 10.363249 0.920000 5.442707 -4.605643 0.325100 -0.000000 -35.841601 9.144562 3.058153 -4.027887 5.495615 -1.430069 -62.082090 -2.968161 -6.344668 84.596513 -1.757278 -5.105456 18.744100 -1.628300 -0.000001 -73.751900
-1.327618 17.383929 1.048796 -25.841813 -76.133989 34.337278 -10.312450 -1.579408 -0.893222 -5.286243 -11.353652 -8.942844 -1.174586 -0.023309 10.351404 0.911401 5.394145 -4.553893 0.325900 -0.000000 -36.082800 9.031448 3.170206 -4.072856 5.619352 -1.576522 -63.471307 -2.993130 -6.421869 84.938679 -1.725715 -4.822045 18.919710 -1.518600 -0.000000 -73.957200
-1.311500 17.388424 1.050617 -26.817152 -75.749978 35.031909 -10.348426 -1.638505 -0.974389 -4.911155 -11.362683 -8.595831 -1.131204 0.001039 10.330659 0.905933 5.366535 -4.502192 0.328101 -0.000000 -36.310500 8.909147 3.284069 -4.113254 5.730106 -1.728377 -64.883380 -3.005123 -6.493505 85.172383 -1.696169 -4.532666 19.191424 -1.410000 0.000000 -74.195600
-1.294560 17.392739 1.052630 -27.775075 -75.370964 35.724499 -10.384092 -1.700356 -1.056624 -4.531265 -11.390620 -8.261742 -1.086464 0.025707 10.309773 0.903587 5.358178 -4.455034 0.331100 -0.000000 -36.523700 8.777128 3.398123 -4.150605 5.834969 -1.881430 -66.309596 -3.003302 -6.559272 85.293187 -1.667426 -4.237853 19.526792 -1.300300 0.000000 -74.461900
-1.276866 17.396892 1.054753 -28.703391 -74.997995 36.406026 -10.418811 -1.764980 -1.138799 -4.150112 -11.443259 -7.946282 -1.040501 0.050760 10.294851 0.904911 5.372923 -4.413672 0.334899 0.000000 -36.717000 8.636303 3.511292 -4.183490 5.929596 -2.033950 -67.749119 -2.987661 -6.619615 85.299317 -1.638173 -3.936422 19.892038 -1.187000 0.000000 -74.741500
-1.258353 17.400846 1.057114 -29.613029 -74.630365 37.088317 -10.453764 -1.832691 -1.221311 -3.764661 -11.517630 -7.655974 -0.993149 0.076869 10.294896 0.909482 5.406770 -4.380807 0.339099 0.000000 -36.889600 8.486862 3.622100 -4.211621 6.016777 -2.182384 -69.196699 -2.957785 -6.674330 85.186704 -1.607539 -3.631843 20.256204 -1.070300 0.000000 -75.024300
